<?xml version="1.0" standalone="no"?><!DOCTYPE svg PUBLIC "-//W3C//DTD SVG 1.1//EN" "http://www.w3.org/Graphics/SVG/1.1/DTD/svg11.dtd"><svg t="1665034191564" class="icon" viewBox="0 0 1024 1024" version="1.1" xmlns="http://www.w3.org/2000/svg" p-id="1396" xmlns:xlink="http://www.w3.org/1999/xlink" width="200" height="200"><path d="M618.057143 207.725714H910.811429c18.432 0 32.987429-14.153143 32.987428-32.585143 0-17.993143-14.573714-32.146286-32.987428-32.146285H618.057143c-18.432 0-32.585143 14.153143-32.585143 32.146285 0 18.432 14.153143 32.566857 32.585143 32.566858zM129.517714 492.690286c31.268571 0 49.28-21.851429 49.28-56.557715v-81.865142c0-9.435429 4.297143-14.994286 14.573715-14.994286h116.571428v42.843428c0 33.865143 34.285714 46.72 59.995429 26.148572l116.150857-92.562286c17.554286-14.153143 17.554286-38.582857 0-52.297143L369.92 170.422857c-26.569143-21.851429-59.977143-8.576-59.977143 26.148572v44.580571h-126.006857c-60.434286 0-103.716571 37.284571-103.716571 98.139429v96.859428c0 34.706286 17.993143 56.557714 49.28 56.557714z m488.576-60.416h292.717715c18.432 0 32.987429-14.153143 32.987428-32.585143 0-17.993143-14.573714-32.146286-32.987428-32.146286H618.057143c-18.432 0-32.585143 14.153143-32.585143 32.146286 0 18.432 14.153143 32.585143 32.585143 32.585143zM112.786286 656.822857h797.988571a32.658286 32.658286 0 0 0 33.005714-32.548571c0-18.011429-14.573714-32.146286-32.987428-32.146286H112.786286c-18.432 0-32.566857 14.134857-32.566857 32.146286 0 17.993143 14.134857 32.548571 32.548571 32.548571z m0 224.164572h797.988571c18.432 0 33.005714-14.153143 33.005714-32.146286s-14.573714-32.566857-32.987428-32.566857H112.786286a32.292571 32.292571 0 0 0-32.566857 32.548571c0 18.011429 14.134857 32.164571 32.548571 32.164572z" p-id="1397" fill="#ffffff"></path></svg>